<svg width="20" height="20" viewBox="0 0 20 20" fill="none" xmlns="http://www.w3.org/2000/svg">
<path d="M17.6341 10.0001C18.4509 9.40367 18.9859 8.57262 19.1515 7.63403C19.4726 5.81259 18.3628 3.89028 16.6248 3.25771C15.7291 2.9319 14.7419 2.97963 13.8171 3.38874C13.709 2.3833 13.2568 1.50438 12.5267 0.891744C11.1099 -0.29713 8.89035 -0.297204 7.47336 0.891744C6.74318 1.50438 6.29108 2.3833 6.18294 3.38874C5.25807 2.97956 4.27093 2.93183 3.37526 3.25771C1.63727 3.89028 0.5274 5.81259 0.848613 7.63403C1.01404 8.57262 1.54922 9.40367 2.36589 10.0001C1.54922 10.5965 1.01411 11.4275 0.848613 12.3661C0.5274 14.1876 1.63727 16.1099 3.37526 16.7424C4.27093 17.0682 5.25807 17.0205 6.18294 16.6114C6.29108 17.6168 6.74325 18.4958 7.47336 19.1084C8.18182 19.7029 9.09091 20 10 20C10.9091 20 11.8183 19.7028 12.5267 19.1084C13.2569 18.4957 13.709 17.6168 13.8171 16.6114C14.7419 17.0206 15.7291 17.0683 16.6248 16.7424C18.3628 16.1099 19.4726 14.1876 19.1515 12.3661C18.9859 11.4274 18.4508 10.5965 17.6341 10.0001ZM8.59182 10.0001C8.59182 9.22357 9.2235 8.59189 10 8.59189C10.7765 8.59189 11.4082 9.22357 11.4082 10.0001C11.4082 10.7766 10.7765 11.4083 10 11.4083C9.2235 11.4083 8.59182 10.7765 8.59182 10.0001ZM8.90258 2.59497C9.49735 2.09574 10.5026 2.09574 11.0974 2.59497C11.8936 3.26304 11.769 4.70339 10.7655 6.45035C10.5185 6.39713 10.2626 6.36845 10 6.36845C9.73741 6.36845 9.48142 6.39713 9.23454 6.45035C8.23096 4.70339 8.10637 3.26297 8.90258 2.59497ZM4.13575 5.347C5.11265 4.99214 6.29819 5.82 7.30941 7.56355C6.96284 7.94565 6.70164 8.39719 6.54322 8.88813C4.52848 8.88383 3.2188 8.27142 3.03833 7.2479C2.90344 6.48311 3.40601 5.61263 4.13575 5.347ZM4.13575 14.6531C3.40601 14.3874 2.90344 13.517 3.03826 12.7522C3.21873 11.7287 4.52841 11.1163 6.54314 11.112C6.70157 11.6029 6.96276 12.0545 7.30934 12.4366C6.29804 14.18 5.11236 15.0082 4.13575 14.6531ZM11.0974 17.4052C10.5026 17.9044 9.49735 17.9044 8.90258 17.4052C8.10637 16.7371 8.23096 15.2968 9.23447 13.5498C9.48142 13.603 9.73734 13.6317 9.99993 13.6317C10.2625 13.6317 10.5185 13.603 10.7654 13.5498C11.769 15.2967 11.8936 16.7371 11.0974 17.4052ZM15.8643 14.653C14.8877 15.0087 13.7019 14.1801 12.6906 12.4365C13.0372 12.0544 13.2984 11.6029 13.4568 11.1119C15.4715 11.1162 16.7812 11.7286 16.9617 12.7522C17.0966 13.517 16.5941 14.3874 15.8643 14.653ZM16.9617 7.2479C16.7812 8.27142 15.4715 8.88383 13.4568 8.88813C13.2984 8.39719 13.0372 7.94565 12.6906 7.56355C13.7018 5.82008 14.8876 4.99133 15.8643 5.34708C16.5941 5.61263 17.0966 6.48311 16.9617 7.2479Z" fill="#3DB3ED"/>
</svg>
