<svg width="177" height="41" viewBox="0 0 177 41" fill="none" xmlns="http://www.w3.org/2000/svg">
<g clip-path="url(#clip0_258_3188)">
<path d="M55.2701 19.38C52.9601 19.57 51.3501 20.17 50.4301 21.19C49.5101 22.21 49.0601 24.05 49.0601 26.71V39.73H43.1001V14.21H48.6801V17.16C49.5801 16.02 50.5601 15.18 51.6301 14.64C52.7001 14.11 53.9101 13.84 55.2601 13.84V19.38H55.2701Z" fill="url(#paint0_linear_258_3188)"/>
<path d="M77.3601 39.74V36.6C76.6501 37.87 75.6401 38.8 74.3501 39.41C73.0601 40.01 71.4001 40.32 69.3801 40.32C65.6001 40.32 62.4401 39.03 59.9001 36.46C57.3601 33.88 56.1001 30.69 56.1001 26.86C56.1001 25.07 56.4201 23.36 57.0501 21.75C57.6901 20.14 58.5901 18.73 59.7701 17.5C61.0401 16.15 62.4501 15.16 64.0001 14.52C65.5501 13.88 67.3001 13.56 69.2301 13.56C71.0901 13.56 72.6901 13.87 74.0301 14.49C75.3701 15.11 76.4501 16.04 77.2701 17.3V14.21H83.0901V39.74H77.3601ZM62.2001 26.76C62.2001 28.91 62.9201 30.71 64.3501 32.16C65.7801 33.61 67.5301 34.33 69.6001 34.33C71.4801 34.33 73.1301 33.6 74.5501 32.15C75.9801 30.7 76.6901 28.99 76.6901 27.04C76.6901 24.97 75.9701 23.18 74.5401 21.69C73.1101 20.2 71.4301 19.45 69.5001 19.45C67.4801 19.45 65.7601 20.16 64.3401 21.57C62.9101 22.99 62.2001 24.72 62.2001 26.76Z" fill="url(#paint1_linear_258_3188)"/>
<path d="M93.7902 16.25C94.8902 15.34 96.0802 14.67 97.3702 14.24C98.6602 13.81 100.13 13.6 101.79 13.6C103.5 13.6 105.1 13.89 106.6 14.46C108.1 15.03 109.44 15.87 110.6 16.97C111.98 18.24 113.05 19.74 113.8 21.46C114.55 23.19 114.93 25 114.93 26.9C114.93 28.94 114.51 30.87 113.69 32.69C112.86 34.51 111.68 36.08 110.14 37.41C109.01 38.38 107.73 39.13 106.3 39.64C104.87 40.15 103.35 40.41 101.74 40.41C100.22 40.41 98.8102 40.18 97.5102 39.73C96.2102 39.27 94.9702 38.58 93.7902 37.65V39.74H87.9302V5.95H93.7902V16.25ZM94.0202 27.09C94.0202 29.16 94.7102 30.92 96.0902 32.36C97.4702 33.8 99.1402 34.52 101.09 34.52C103.31 34.52 105.15 33.8 106.6 32.37C108.06 30.94 108.79 29.15 108.79 27C108.79 24.94 108.06 23.17 106.62 21.69C105.17 20.2 103.42 19.46 101.37 19.46C99.2902 19.46 97.5502 20.19 96.1402 21.65C94.7202 23.11 94.0202 24.92 94.0202 27.09Z" fill="url(#paint2_linear_258_3188)"/>
<path d="M124.86 11.61H119.04V5.95H124.86V11.61ZM119.05 39.74V14.21H124.87V39.74H119.05Z" fill="url(#paint3_linear_258_3188)"/>
<path d="M132 39.74V19.5H128.09V14.21H132V5.95H137.95V14.21H141.88V19.5H137.95V39.74H132Z" fill="url(#paint4_linear_258_3188)"/>
<path d="M146.59 39.74V19.5H142.68V14.21H146.59V5.95H152.54V14.21H156.47V19.5H152.54V39.74H146.59Z" fill="url(#paint5_linear_258_3188)"/>
<path d="M163.22 31.27V31.62C163.22 32.75 163.51 33.67 164.08 34.37C164.65 35.07 165.4 35.43 166.31 35.43C167.18 35.43 167.89 35.17 168.44 34.64C168.99 34.11 169.27 33.44 169.27 32.62C169.27 31.86 169.07 31.24 168.67 30.75C168.27 30.26 167.55 29.77 166.51 29.28C165.92 29.02 165.05 28.65 163.9 28.19C162.75 27.73 162.02 27.36 161.69 27.1C160.74 26.33 160.05 25.46 159.6 24.51C159.15 23.56 158.93 22.47 158.93 21.25C158.93 19.1 159.69 17.28 161.2 15.8C162.71 14.31 164.55 13.57 166.7 13.57C168.98 13.57 170.78 14.23 172.11 15.54C173.44 16.86 174.16 18.7 174.28 21.06H168.93V20.92C168.93 20.1 168.72 19.46 168.29 18.99C167.86 18.53 167.27 18.29 166.51 18.29C165.84 18.29 165.29 18.52 164.85 18.97C164.41 19.43 164.19 20 164.19 20.68C164.19 21.79 165.34 22.83 167.63 23.79C168.23 24.04 168.7 24.23 169.03 24.37C171.23 25.36 172.74 26.42 173.54 27.56C174.35 28.7 174.75 30.23 174.75 32.17C174.75 34.55 173.94 36.52 172.33 38.08C170.72 39.63 168.69 40.41 166.24 40.41C163.77 40.41 161.79 39.59 160.27 37.95C158.76 36.31 157.93 34.09 157.79 31.29L163.22 31.27Z" fill="url(#paint6_linear_258_3188)"/>
<path d="M19.6902 0.499997C19.6902 3.13 19.6902 5.69 19.6902 8.31C19.1502 8.39 18.6202 8.45 18.1002 8.56C13.2702 9.57 9.7202 13.41 9.1902 18.4C8.6802 23.23 10.1102 27.38 14.3602 30.06C18.3102 32.55 22.4802 32.41 26.5102 30.13C28.7202 28.88 29.9702 26.89 30.2602 24.21C26.7302 24.21 23.3002 24.21 19.7702 24.21C19.7702 21.97 19.7702 19.83 19.7702 17.61C26.0702 17.61 32.3502 17.61 38.7202 17.61C39.2002 21.41 39.0202 25.07 37.5502 28.6C34.6102 35.65 27.7402 39.9 19.6302 39.69C10.9802 39.47 3.6402 33.79 1.4402 25.62C-0.939796 16.79 2.4702 7.77 9.9102 3.26C12.6802 1.58 15.7002 0.669997 18.9502 0.499997C19.1802 0.489997 19.4102 0.499997 19.6902 0.499997Z" fill="url(#paint7_linear_258_3188)"/>
</g>
<defs>
<linearGradient id="paint0_linear_258_3188" x1="43.1008" y1="26.7865" x2="55.2662" y2="26.7865" gradientUnits="userSpaceOnUse">
<stop stop-color="#097AAF"/>
<stop offset="1" stop-color="#13264C"/>
</linearGradient>
<linearGradient id="paint1_linear_258_3188" x1="56.1036" y1="26.9374" x2="83.1093" y2="26.9374" gradientUnits="userSpaceOnUse">
<stop stop-color="#097AAF"/>
<stop offset="1" stop-color="#13264C"/>
</linearGradient>
<linearGradient id="paint2_linear_258_3188" x1="87.9244" y1="23.1776" x2="114.93" y2="23.1776" gradientUnits="userSpaceOnUse">
<stop stop-color="#097AAF"/>
<stop offset="1" stop-color="#13264C"/>
</linearGradient>
<linearGradient id="paint3_linear_258_3188" x1="119.047" y1="22.8411" x2="124.862" y2="22.8411" gradientUnits="userSpaceOnUse">
<stop stop-color="#097AAF"/>
<stop offset="1" stop-color="#13264C"/>
</linearGradient>
<linearGradient id="paint4_linear_258_3188" x1="128.096" y1="22.8411" x2="141.89" y2="22.8411" gradientUnits="userSpaceOnUse">
<stop stop-color="#097AAF"/>
<stop offset="1" stop-color="#13264C"/>
</linearGradient>
<linearGradient id="paint5_linear_258_3188" x1="142.68" y1="22.8411" x2="156.474" y2="22.8411" gradientUnits="userSpaceOnUse">
<stop stop-color="#097AAF"/>
<stop offset="1" stop-color="#13264C"/>
</linearGradient>
<linearGradient id="paint6_linear_258_3188" x1="157.776" y1="26.9838" x2="174.733" y2="26.9838" gradientUnits="userSpaceOnUse">
<stop stop-color="#097AAF"/>
<stop offset="1" stop-color="#13264C"/>
</linearGradient>
<linearGradient id="paint7_linear_258_3188" x1="0.692704" y1="20.1015" x2="38.9602" y2="20.1015" gradientUnits="userSpaceOnUse">
<stop stop-color="#13264C"/>
<stop offset="1" stop-color="#097AAF"/>
</linearGradient>
<clipPath id="clip0_258_3188">
<rect width="177" height="40" fill="white" transform="translate(0 0.5)"/>
</clipPath>
</defs>
</svg>
