<svg width="299" height="153" viewBox="0 0 299 153" fill="none" xmlns="http://www.w3.org/2000/svg">
<path opacity="0.6" fill-rule="evenodd" clip-rule="evenodd" d="M6.80623 0L0 0V0.213563C4.98897 5.26898 9.92521 10.33 14.8188 15.3657C16.9794 17.589 19.132 19.8077 21.2774 22.0189L21.2978 22.04L21.2979 22.0401C37.5235 38.7638 53.3317 55.0575 69.0247 69.6697C104.499 102.701 139.907 127.663 179.205 129.61C190.037 130.147 199.23 129.84 206.987 128.859C231.268 147.033 251.789 153.296 268.785 152.421C280.791 151.802 290.83 147.633 299 141.863V135.609C290.977 142.04 280.865 146.792 268.528 147.427C253.912 148.18 235.801 143.176 213.931 127.728C217.155 127.075 220.077 126.284 222.719 125.374C232.801 121.9 238.938 116.623 241.973 110.458C244.999 104.313 244.744 97.686 242.845 91.8869C240.952 86.1093 237.372 80.959 233.407 77.5668L233.247 77.4307L233.068 77.323C215.998 67.0754 199.555 71.053 190.615 80.9399C186.178 85.8463 183.614 92.2023 183.862 98.8511C184.112 105.537 187.196 112.298 193.649 117.982C196.231 120.256 198.775 122.401 201.28 124.421C194.992 124.928 187.755 125.027 179.453 124.616C142.079 122.764 107.825 98.9661 72.432 66.0104C56.8385 51.4909 41.125 35.2952 24.8867 18.5586L24.8453 18.5159C22.7078 16.3128 20.5612 14.1003 18.4045 11.8811C14.5705 7.9358 10.7059 3.97019 6.80623 0ZM196.954 114.23C200.858 117.668 204.659 120.793 208.357 123.625C213.287 122.899 217.504 121.882 221.09 120.647C230.29 117.477 235.186 112.924 237.487 108.25C239.799 103.555 239.694 98.3314 238.093 93.4434C236.51 88.6121 233.519 84.2999 230.312 81.5009C215.22 72.5372 201.524 76.3302 194.323 84.2935C190.674 88.3282 188.664 93.4416 188.859 98.6646C189.052 103.851 191.428 109.363 196.954 114.23Z" fill="#0875AA"/>
</svg>
